<?xml version="1.0" encoding="UTF-8"?>
<svg id="Layer_2" data-name="Layer 2" xmlns="http://www.w3.org/2000/svg" viewBox="0 0 466.84 115.53">
  <defs>
    <style>
      .cls-1 {
        fill: #0b3536;
      }

      .cls-2 {
        fill: #135a5a;
      }
    </style>
  </defs>
  <g id="Layer_1-2" data-name="Layer 1">
    <path class="cls-1" d="M0,81.56c0-18.71,15.1-33.81,33.81-33.81h27.41c17.72,0,17.72-27.08,0-27.08H0V.33h61.21c28.72,0,44.15,33.64,25.93,55.47,23.8,20.35,9.52,59.74-21.99,59.74H0v-33.97ZM65.15,95.18c17.89,0,17.89-27.08,0-27.08h-31.34c-7.55,0-13.46,6.07-13.46,13.46v13.62h44.8Z"/>
    <g>
      <path class="cls-2" d="M222.25,67.28h-59.08v47.92h-20.35V.16h20.35v46.77h59.08V.16h20.35v115.04h-20.35v-47.92Z"/>
      <path class="cls-2" d="M259.01,69.25V.33h20.35v68.93c0,14.28,11.65,25.93,25.93,25.93s25.77-11.65,25.77-25.93V.33h20.35v68.93c0,25.6-20.68,46.28-46.12,46.28s-46.28-20.68-46.28-46.28Z"/>
      <path class="cls-2" d="M367.81,81.23c0-18.71,15.1-33.81,33.81-33.81h27.41c17.72,0,17.72-27.08,0-27.08h-61.21V0h61.21c28.72,0,44.14,33.64,25.93,55.47,23.8,20.35,9.52,59.74-21.99,59.74h-65.15v-33.97ZM432.96,94.85c17.89,0,17.89-27.08,0-27.08h-31.34c-7.55,0-13.46,6.07-13.46,13.46v13.62h44.8Z"/>
    </g>
  </g>
</svg>